<svg width="180" height="28" viewBox="0 0 180 28" fill="none" xmlns="http://www.w3.org/2000/svg">
<path d="M19.2365 13.3732C19.2256 13.3732 19.2473 13.3622 19.2365 13.3732C19.2365 13.3732 19.2365 13.4505 19.4647 13.6051C20.8776 14.7646 21.6275 15.88 21.6166 18.1659C21.6057 21.015 19.1713 23.0801 16.4107 23.0801V27.0114C21.2145 27.0114 25.5944 23.5328 25.5944 18.5745C25.5944 16.7966 25.1162 15.0517 23.9207 13.3401C23.975 13.2738 24.2359 12.9646 24.4424 12.5891C24.7358 12.0591 24.7901 11.4186 24.7901 9.2762V0H12.4656V7.38783H8.53125V11.4517H16.4759V4.16325H20.9102V10.4578C20.921 10.4468 21.0949 12.2026 19.2365 13.3732Z" fill="#009E9C"/>
<path d="M8.57504 0H7.42301V0.0110431C5.33631 0.0552155 3.14092 0.728845 1.68458 2.41844C0.141287 4.19638 0 5.77554 0 8.38171C0 10.1597 0 27.0114 0 27.0114H12.5311V19.7009H16.498V15.5929H8.53157V22.9696H3.98865V7.52035C3.98865 7.52035 3.6952 4.16325 7.66211 4.0749L8.56418 4.03073L8.57504 0Z" fill="#008FC7"/>
<path d="M49.223 15.4164C49.223 15.4605 49.223 18.5526 49.223 18.5526L36.9854 18.5636V14.2347H47.7449C49.3099 14.2347 49.223 15.4164 49.223 15.4164ZM46.8428 17.0949V15.7697H39.1916V17.0949H46.8428Z" fill="black"/>
<path d="M34.6909 27.0671V19.4474H49.8739C50.2216 19.4474 50.6129 19.6682 50.6129 19.6682C51.178 19.9443 51.5476 20.4965 51.5802 21.1259V27.0671H49.037V26.5481H37.2232V27.0671H34.6909ZM49.037 22.2192V21.1812H44.2984V22.2192H49.037ZM41.9726 22.2192V21.1812H37.245V22.2192H41.9726ZM49.037 24.8695V23.8315H44.2984V24.8695H49.037ZM41.9726 24.8806V23.8536H37.245V24.8806H41.9726Z" fill="black"/>
<path d="M49.2221 11.7933H36.9736V13.4167H49.2221V11.7933Z" fill="black"/>
<path d="M33.7568 13.8155V8.83501H41.8645V7.54297H44.3099V8.75771H50.7113C50.7113 8.75771 52.3524 8.87918 52.3524 10.2706V13.8265H50.1244V10.9663H36.1044V13.8155H33.7568Z" fill="black"/>
<path d="M75.3044 14.8741L76.8586 9.66176C77.0868 8.78936 76.3043 7.97217 75.5001 7.97217H69.0117V27.132H71.3701V23.6644C71.3701 23.6644 72.0766 24.7356 72.4569 25.2767C73.2177 25.3098 73.6742 25.0779 74.3263 24.8019C75.8696 24.0399 76.9347 22.4386 77.152 20.7822C77.3151 18.4962 76.6086 16.5306 75.3044 14.8741ZM74.7719 20.9809C74.4567 21.8644 73.5981 22.7478 72.7178 22.9908C72.2396 23.1012 71.9244 23.1785 71.3375 23.046V10.3464H74.348C73.8916 12.0029 73.3264 13.7256 72.8156 15.349C72.9786 15.6471 73.3155 15.9232 73.5112 16.2545C74.3915 17.6349 75.2501 19.214 74.7719 20.9809Z" fill="black"/>
<path d="M68.1978 16.4659V13.9922H64.8069V12.1149H68.1217V9.74065H64.8069V7.4989H62.242V9.74065H58.3838V12.1701H62.242V14.0143H58.3838V16.4328H62.242V18.2438H58.4381V20.7285H62.1333C62.0029 23.5114 59.8293 25.2562 59.8293 25.2562L61.2313 27.1556C64.6765 25.201 64.8287 20.7506 64.8287 20.7506H68.1869V18.2549H64.7961V16.488H68.1978V16.4659Z" fill="black"/>
<path d="M113.355 18.3419V15.6142L111.909 16.5529V13.1626H113.333V10.8215H111.909V7.74048H109.736V10.8105H107.595V13.1516H109.747V17.7234C108.388 18.5848 107.377 19.1149 107.377 19.1149C107.377 19.1149 108.127 21.5444 108.149 21.5444C108.573 21.3345 109.084 21.0143 109.736 20.5505V23.3775C109.736 23.6425 109.627 24.018 109.486 24.2389C109.345 24.4597 108.606 25.0561 107.877 25.1113L108.725 27.1432C110.377 26.8892 110.942 26.2266 111.268 25.8953C111.638 25.5088 111.942 24.6916 111.931 23.3665V19.3799C112.909 18.6732 113.355 18.3419 113.355 18.3419Z" fill="black"/>
<path d="M115.757 11.1543H123.55C123.756 11.1543 123.865 11.2536 123.865 11.4855C123.865 11.4966 123.865 14.1801 123.865 14.1801H125.984L125.995 10.4365C125.995 9.80699 125.376 9.13337 124.756 9.13337H120.963V7.71985H118.757V9.12232H113.769V13.6942H115.768L115.757 11.1543Z" fill="black"/>
<path d="M121.029 21.0695H124.083V19.7112C124.116 19.7443 125.083 20.6719 125.615 20.8486C126.05 20.3517 126.604 19.8658 126.931 19.2805C124.8 17.7345 123.322 15.3712 122.409 13.008C122.181 12.5553 121.964 12.2792 121.344 12.2792C120.725 12.2792 118.051 12.2902 118.051 12.2902V14.4988C118.051 14.4988 120.518 14.4988 120.67 14.4988C120.823 14.4988 120.877 14.6093 120.877 14.6093C121.464 16.2547 122.301 17.7013 123.464 19.0486H116.084C116.964 17.8559 117.497 16.6633 117.845 15.1835C117.845 15.1835 117.845 14.9847 117.671 14.9847C117.54 14.9847 115.758 14.9737 115.758 14.9737C115.28 16.586 114.247 18.2535 112.965 19.4461L114.269 21.1247C114.986 20.5394 115.475 19.9431 115.997 19.2363V21.0805H118.942V24.6695H113.726V26.7567H126.148V24.6695H121.029V21.0695Z" fill="black"/>
<path d="M98.1942 15.9575V14.555C99.0094 14.9857 99.9006 15.4163 100.89 15.8029L101.976 13.7378C94.8577 10.6568 92.9557 7.42114 92.9557 7.42114H91.4668C91.4668 7.42114 89.5757 10.6678 82.457 13.7378L83.5439 15.8029C84.4785 15.4274 85.3262 15.0298 86.1088 14.6212V15.9464H91.119V18.1661H83.8264V20.3195H85.8914L84.935 20.9821C84.935 20.9821 86.5761 23.4889 87.0652 24.7809H83.8482V26.9453H100.487V24.7809H97.3791C98.3464 23.3784 99.3245 20.9379 99.3245 20.9379L98.2486 20.3416H100.487V18.1882H93.1948V15.9685H98.1942V15.9575ZM87.0434 20.3416H91.1299V24.7809H87.8368L88.9888 24.0962C88.8258 23.2901 87.6412 21.2913 87.0434 20.3416ZM97.14 20.3416C96.7488 21.2581 95.8684 23.2017 95.0642 24.1404L96.238 24.7919H93.184V20.3526H97.14V20.3416ZM92.0319 10.2813H92.3797C93.3253 11.3083 94.836 12.5672 96.8574 13.793H87.5868C89.6083 12.5672 91.0864 11.3083 92.0319 10.2813Z" fill="black"/>
<path d="M135.82 15.3835V7.33313H140.939V8.66934H137.516V10.6129H140.7V11.9491H137.516V15.3835H135.82Z" fill="black"/>
<path d="M145.298 14.6883C144.951 15.2073 144.429 15.5497 143.603 15.5497C143.06 15.5497 141.995 15.13 141.788 14.3128C141.701 13.9705 141.668 13.6061 141.668 13.4183V9.78516H143.32V13.1423C143.331 13.7496 143.494 14.4453 144.309 14.4453C144.82 14.4453 145.266 13.9705 145.298 13.1423V9.78516H146.95V14.3791C146.961 14.7104 146.983 15.0527 147.016 15.373H145.375L145.298 14.6883Z" fill="black"/>
<path d="M149.765 12.5898C149.765 11.8168 150.069 10.7345 150.95 10.7345C152.004 10.7345 152.134 11.7284 152.134 12.5898C152.134 13.4511 152.004 14.445 150.95 14.445C150.069 14.434 149.765 13.3628 149.765 12.5898ZM148.113 14.2683C148.113 14.6327 148.08 15.0082 148.059 15.3726H149.711C149.732 15.1076 149.754 14.8536 149.754 14.5886H149.776C150.145 15.2512 150.754 15.5493 151.471 15.5493C153.08 15.5493 153.841 14.0254 153.841 12.5898C153.841 11.0879 152.982 9.61917 151.265 9.61917C150.7 9.61917 150.102 9.96151 149.798 10.4364H149.776V7.33325H148.124V14.2683H148.113Z" fill="black"/>
<path d="M156.08 12.5897C156.08 11.6952 156.243 10.7345 157.253 10.7345C158.264 10.7345 158.427 11.6952 158.427 12.5897C158.427 13.4842 158.264 14.445 157.253 14.445C156.243 14.4339 156.08 13.4842 156.08 12.5897ZM160.134 12.5897C160.134 10.8339 159.058 9.61914 157.264 9.61914C155.46 9.61914 154.384 10.8228 154.384 12.5897C154.384 14.3456 155.46 15.5493 157.264 15.5493C159.058 15.5493 160.134 14.3345 160.134 12.5897Z" fill="black"/>
<path d="M162.361 10.4363L162.383 10.4695C162.719 9.96148 163.241 9.61914 164.067 9.61914C164.621 9.61914 165.676 10.0388 165.882 10.8449C165.969 11.1873 165.991 11.5517 165.991 11.7394V15.3836H164.35V12.0265C164.339 11.4302 164.176 10.7455 163.361 10.7455C162.839 10.7455 162.393 11.2093 162.372 12.0265V15.3836H160.72V9.78479H162.35V10.4363H162.361Z" fill="black"/>
<path d="M135.811 27.1328V18.9498H141.006V20.3081H137.539V22.2848H140.777V23.6431H137.539V27.1328H135.811Z" fill="black"/>
<path d="M143.527 21.4456V27.1328H141.853V21.4456H143.527ZM143.581 18.9498V20.4186H141.799V18.9498H143.581Z" fill="black"/>
<path d="M146.657 22.0976L146.679 22.1308C147.027 21.6117 147.548 21.2694 148.396 21.2694C148.95 21.2694 150.037 21.689 150.233 22.5173C150.32 22.8707 150.352 23.224 150.352 23.4228V27.1223H148.678V23.6989C148.668 23.0805 148.505 22.3958 147.679 22.3958C147.157 22.3958 146.7 22.8707 146.668 23.6989V27.1223H144.994V21.4351H146.657V22.0976Z" fill="black"/>
<path d="M154.689 24.4609C154.689 25.1235 154.656 26.1725 153.722 26.1725C153.254 26.1725 152.907 25.8302 152.907 25.3554C152.907 24.4277 154.102 24.4498 154.689 24.4609ZM153.168 23.0473C153.146 22.7934 153.331 22.2412 153.917 22.2412C154.504 22.2412 154.689 22.705 154.689 22.9369V23.478C154.015 23.4559 153.168 23.4891 152.505 23.7762C151.494 24.2179 151.309 25.1897 151.309 25.5762C151.309 26.6805 152.092 27.2989 153.135 27.2989C153.896 27.2989 154.472 27.0339 154.852 26.3713H154.874C154.874 26.6032 154.896 26.8683 154.928 27.1333H156.439C156.417 26.9676 156.374 26.791 156.363 26.5038V23.4007C156.363 21.7001 155.102 21.2694 153.972 21.2694C153.374 21.2694 152.776 21.3578 152.32 21.6338C151.874 21.8878 151.57 22.3406 151.559 23.0473H153.168Z" fill="black"/>
<path d="M159.221 22.0976L159.243 22.1308C159.59 21.6117 160.112 21.2694 160.96 21.2694C161.514 21.2694 162.601 21.689 162.807 22.5173C162.894 22.8707 162.916 23.224 162.916 23.4228V27.1223H161.242V23.6989C161.232 23.0805 161.069 22.3958 160.232 22.3958C159.71 22.3958 159.254 22.8707 159.232 23.6989V27.1223H157.558V21.4351H159.221V22.0976Z" fill="black"/>
<path d="M167.101 23.4332C167.09 22.9694 166.905 22.4062 166.253 22.4062C165.536 22.4062 165.525 23.7645 165.503 24.2062C165.547 24.7252 165.558 26.1719 166.275 26.1719C166.916 26.1719 167.112 25.5203 167.123 25.0676H168.753C168.699 26.5142 167.818 27.3093 166.275 27.3093C164.612 27.3093 163.786 25.8075 163.786 24.2946C163.786 22.7927 164.623 21.2798 166.275 21.2798C167.699 21.2798 168.764 22.108 168.753 23.4442H167.101V23.4332Z" fill="black"/>
<path d="M171.154 21.4456V27.1328H169.48V21.4456H171.154ZM171.208 18.9498V20.4186H169.426V18.9498H171.208Z" fill="black"/>
<path d="M175.469 24.4609C175.469 25.1235 175.436 26.1725 174.512 26.1725C174.045 26.1725 173.697 25.8302 173.697 25.3554C173.697 24.4277 174.904 24.4498 175.469 24.4609ZM173.958 23.0473C173.936 22.7934 174.121 22.2412 174.708 22.2412C175.306 22.2412 175.48 22.705 175.48 22.9369V23.478C174.806 23.4559 173.969 23.4891 173.295 23.7762C172.273 24.2179 172.1 25.1897 172.1 25.5762C172.1 26.6805 172.882 27.2989 173.936 27.2989C174.697 27.2989 175.273 27.0339 175.654 26.3713H175.675C175.675 26.6032 175.697 26.8683 175.73 27.1333H177.229C177.208 26.9676 177.164 26.791 177.153 26.5038V23.4007C177.153 21.7001 175.893 21.2694 174.762 21.2694C174.165 21.2694 173.567 21.3578 173.11 21.6338C172.665 21.8878 172.36 22.3406 172.35 23.0473H173.958Z" fill="black"/>
<path d="M180 18.9498V27.1328H178.327V18.9498H180Z" fill="black"/>
</svg>
