<svg width="379" height="88" viewBox="0 0 379 88" fill="none" xmlns="http://www.w3.org/2000/svg">
<path d="M12.016 21.696V23.232H6.192V21.696H12.016ZM21.744 23.232H15.696V21.696H21.744V23.232ZM15.696 27.264V25.632H21.744V27.264H15.696ZM6.192 27.264V25.632H12.016V27.264H6.192ZM2.64 30.752H6.192V30.016H21.744V30.688H25.488V18.944H2.64V30.752ZM8.272 13.6H19.632V15.296H8.272V13.6ZM4.816 17.76H23.312V11.104H4.816V17.76ZM5.328 7.328V9.92H22.64V7.328H5.328ZM15.856 2.72V0.895998H11.952V2.72H0.4V9.728H4.016V5.92H23.92V9.728H27.728V2.72H15.856ZM45.904 14.848V11.52H41.488V8.448H46.576V4.928H41.488V0.959999H37.744V4.928H31.856V8.448H37.744V11.52H32.4V14.848H37.712C37.68 15.936 37.616 16.992 37.488 18.048H31.28V21.568H36.688C35.856 24.096 34.384 26.432 31.76 28.384C32.752 28.96 34.224 30.24 34.928 31.072C38.256 28.416 39.92 25.12 40.72 21.568H46.736V18.048H41.296C41.392 16.992 41.456 15.904 41.456 14.848H45.904ZM58.032 2.688L57.424 2.848H47.728V30.816H51.504V6.368H55.888C54.992 8.832 53.776 12.064 52.72 14.368C55.696 16.864 56.56 19.168 56.56 20.896C56.56 22.016 56.336 22.752 55.696 23.072C55.28 23.264 54.8 23.328 54.288 23.36C53.744 23.392 53.008 23.36 52.144 23.296C52.784 24.352 53.136 25.984 53.168 27.008C54.16 27.04 55.184 27.008 55.984 26.944C56.912 26.816 57.68 26.528 58.352 26.112C59.664 25.28 60.272 23.68 60.24 21.344C60.24 19.232 59.632 16.704 56.56 13.856C57.936 11.136 59.568 7.552 60.816 4.448L58.032 2.688ZM79.376 7.328V9.536H76.656V7.328H79.376ZM73.36 7.328V12.32H82.8V7.328H84.624V8.928C84.624 11.744 85.168 12.64 87.792 12.64H89.712C91.664 12.64 92.432 11.744 92.752 8.768C91.888 8.544 90.544 8.064 89.904 7.584C89.84 9.472 89.712 9.824 89.328 9.824H88.432C88.08 9.824 88.016 9.728 88.016 8.896V7.328H92.272V4.384H88.016V1.216H84.624V4.384H82.8V1.28H79.376V4.384H76.656V1.312L73.36 1.28V4.384H71.568V1.248H68.176V4.384H63.792V7.328H67.952C67.568 8.704 66.544 10.08 64.016 10.912C64.752 11.52 65.744 12.64 66.192 13.344C69.584 11.872 70.992 9.6 71.408 7.328H73.36ZM75.984 16.608V19.008H67.728V16.608H75.984ZM88.336 19.008H79.696V16.608H88.336V19.008ZM64.208 20.448H67.312V28.896H71.024V22.016H75.984V30.784H79.696V22.016H85.264V25.408C85.264 25.76 85.104 25.856 84.656 25.856C84.208 25.888 82.544 25.888 81.104 25.824C81.584 26.688 82.128 28.096 82.288 29.088C84.528 29.088 86.16 29.088 87.44 28.544C88.656 28.032 89.008 27.104 89.008 25.472V20.448H92.048V13.536H64.208V20.448ZM101.648 1.024C100.048 5.568 97.264 10.112 94.384 12.992C95.024 13.92 96.08 16 96.432 16.96C97.136 16.192 97.872 15.328 98.576 14.368V30.72H102.224V8.704C103.408 6.592 104.432 4.352 105.264 2.144L101.648 1.024ZM107.568 15.136C106.832 18.688 105.488 22.304 103.664 24.544C104.592 25.024 106.192 25.984 106.928 26.592C108.72 24 110.352 19.968 111.28 15.904L107.568 15.136ZM120.88 10.144C120.72 11.552 120.528 12.896 120.368 13.888L123.6 14.432C124.048 12.576 124.592 9.6 124.976 7.008L122.288 6.496L121.68 6.624H110.672C111.248 5.056 111.76 3.488 112.176 1.856L108.464 1.024C107.376 5.408 105.456 9.824 103.024 12.544C103.888 13.12 105.424 14.368 106.096 15.04C107.152 13.696 108.208 12 109.104 10.144H112.816V26.464C112.816 26.88 112.656 27.008 112.24 27.008C111.792 27.008 110.448 27.008 109.104 26.976C109.68 28 110.256 29.696 110.416 30.816C112.464 30.816 114 30.656 115.12 30.048C116.272 29.408 116.592 28.352 116.592 26.528V10.144H120.88ZM117.744 15.968C119.28 19.264 120.624 23.648 120.976 26.496L124.624 25.248C124.176 22.368 122.8 18.112 121.136 14.816L117.744 15.968ZM127.312 13.472V17.6H156.752V13.472H127.312ZM183.472 10.368H175.376V20.192C175.376 23.872 176.4 24.896 179.952 24.896H184.496C187.6 24.896 188.528 23.552 188.944 18.784C187.984 18.56 186.416 17.952 185.616 17.344C185.488 20.928 185.296 21.504 184.176 21.504H180.464C179.216 21.504 178.992 21.344 178.992 20.192V13.632H183.472V14.464H187.152V2.112H175.088V5.44H183.472V10.368ZM169.328 20.416H173.872V17.12H169.328V13.664H174.16V10.368H168.624V7.36H173.36V4.096H168.624V0.959999H165.072V4.096H160.304V7.36H165.072V10.368H159.44V13.664H165.84V23.616C165.008 22.688 164.368 21.504 163.856 19.936C163.92 18.592 163.984 17.216 164.016 15.808L160.528 15.552C160.464 21.024 160.144 26.336 158.576 29.568C159.408 29.92 161.072 30.752 161.744 31.2C162.448 29.632 162.928 27.744 163.248 25.6C165.744 29.184 169.552 29.952 175.504 29.952H187.856C188.08 28.832 188.72 27.072 189.296 26.208C186.416 26.336 177.936 26.336 175.504 26.304C173.04 26.304 171.024 26.176 169.328 25.696V20.416ZM23.392 87L16.912 77.64H16.528H9.76V87H1.984V53.4H16.528C19.504 53.4 22.08 53.896 24.256 54.888C26.464 55.88 28.16 57.288 29.344 59.112C30.528 60.936 31.12 63.096 31.12 65.592C31.12 68.088 30.512 70.248 29.296 72.072C28.112 73.864 26.416 75.24 24.208 76.2L31.744 87H23.392ZM23.248 65.592C23.248 63.704 22.64 62.264 21.424 61.272C20.208 60.248 18.432 59.736 16.096 59.736H9.76V71.448H16.096C18.432 71.448 20.208 70.936 21.424 69.912C22.64 68.888 23.248 67.448 23.248 65.592ZM52.2089 87.576C47.4089 87.576 43.6649 86.248 40.9769 83.592C38.3209 80.936 36.9929 77.144 36.9929 72.216V53.4H44.7689V71.928C44.7689 77.944 47.2649 80.952 52.2569 80.952C54.6889 80.952 56.5449 80.232 57.8249 78.792C59.1049 77.32 59.7449 75.032 59.7449 71.928V53.4H67.4249V72.216C67.4249 77.144 66.0809 80.936 63.3929 83.592C60.7369 86.248 57.0089 87.576 52.2089 87.576ZM105.925 53.4V87H99.541L82.789 66.6V87H75.109V53.4H81.541L98.245 73.8V53.4H105.925ZM135.148 61.752H141.772V67.512H135.34V87H127.852V67.512H123.868V61.752H127.852V60.6C127.852 57.656 128.716 55.32 130.444 53.592C132.204 51.864 134.668 51 137.836 51C138.956 51 140.012 51.128 141.004 51.384C142.028 51.608 142.876 51.944 143.548 52.392L141.58 57.816C140.716 57.208 139.708 56.904 138.556 56.904C136.284 56.904 135.148 58.152 135.148 60.648V61.752ZM157.463 87.384C154.743 87.384 152.295 86.824 150.119 85.704C147.975 84.552 146.295 82.968 145.079 80.952C143.863 78.936 143.255 76.648 143.255 74.088C143.255 71.528 143.863 69.24 145.079 67.224C146.295 65.208 147.975 63.64 150.119 62.52C152.295 61.368 154.743 60.792 157.463 60.792C160.183 60.792 162.615 61.368 164.759 62.52C166.903 63.64 168.583 65.208 169.799 67.224C171.015 69.24 171.623 71.528 171.623 74.088C171.623 76.648 171.015 78.936 169.799 80.952C168.583 82.968 166.903 84.552 164.759 85.704C162.615 86.824 160.183 87.384 157.463 87.384ZM157.463 81.24C159.383 81.24 160.951 80.6 162.167 79.32C163.415 78.008 164.039 76.264 164.039 74.088C164.039 71.912 163.415 70.184 162.167 68.904C160.951 67.592 159.383 66.936 157.463 66.936C155.543 66.936 153.959 67.592 152.711 68.904C151.463 70.184 150.839 71.912 150.839 74.088C150.839 76.264 151.463 78.008 152.711 79.32C153.959 80.6 155.543 81.24 157.463 81.24ZM183.78 64.584C184.676 63.336 185.876 62.392 187.38 61.752C188.916 61.112 190.676 60.792 192.66 60.792V67.704C191.828 67.64 191.268 67.608 190.98 67.608C188.836 67.608 187.156 68.216 185.94 69.432C184.724 70.616 184.116 72.408 184.116 74.808V87H176.628V61.176H183.78V64.584ZM234.126 69.672H241.23V83.304C239.406 84.68 237.294 85.736 234.894 86.472C232.494 87.208 230.078 87.576 227.646 87.576C224.158 87.576 221.022 86.84 218.238 85.368C215.454 83.864 213.262 81.8 211.662 79.176C210.094 76.52 209.31 73.528 209.31 70.2C209.31 66.872 210.094 63.896 211.662 61.272C213.262 58.616 215.47 56.552 218.286 55.08C221.102 53.576 224.27 52.824 227.79 52.824C230.734 52.824 233.406 53.32 235.806 54.312C238.206 55.304 240.222 56.744 241.854 58.632L236.862 63.24C234.462 60.712 231.566 59.448 228.174 59.448C226.03 59.448 224.126 59.896 222.462 60.792C220.798 61.688 219.502 62.952 218.574 64.584C217.646 66.216 217.182 68.088 217.182 70.2C217.182 72.28 217.646 74.136 218.574 75.768C219.502 77.4 220.782 78.68 222.414 79.608C224.078 80.504 225.966 80.952 228.078 80.952C230.318 80.952 232.334 80.472 234.126 79.512V69.672ZM269.861 87L263.381 77.64H262.997H256.229V87H248.453V53.4H262.997C265.973 53.4 268.549 53.896 270.725 54.888C272.933 55.88 274.629 57.288 275.813 59.112C276.997 60.936 277.589 63.096 277.589 65.592C277.589 68.088 276.981 70.248 275.765 72.072C274.581 73.864 272.885 75.24 270.677 76.2L278.213 87H269.861ZM269.717 65.592C269.717 63.704 269.109 62.264 267.893 61.272C266.677 60.248 264.901 59.736 262.565 59.736H256.229V71.448H262.565C264.901 71.448 266.677 70.936 267.893 69.912C269.109 68.888 269.717 67.448 269.717 65.592ZM309.766 80.76V87H283.75V53.4H309.142V59.64H291.478V66.936H307.078V72.984H291.478V80.76H309.766ZM341.969 80.76V87H315.953V53.4H341.345V59.64H323.681V66.936H339.281V72.984H323.681V80.76H341.969ZM378.972 53.4V87H372.588L355.836 66.6V87H348.156V53.4H354.588L371.292 73.8V53.4H378.972Z" fill="white"/>
</svg>
