<svg width="191" height="147" viewBox="0 0 191 147" fill="none" xmlns="http://www.w3.org/2000/svg">
<path d="M12.016 21.696V23.232H6.192V21.696H12.016ZM21.744 23.232H15.696V21.696H21.744V23.232ZM15.696 27.264V25.632H21.744V27.264H15.696ZM6.192 27.264V25.632H12.016V27.264H6.192ZM2.64 30.752H6.192V30.016H21.744V30.688H25.488V18.944H2.64V30.752ZM8.272 13.6H19.632V15.296H8.272V13.6ZM4.816 17.76H23.312V11.104H4.816V17.76ZM5.328 7.328V9.92H22.64V7.328H5.328ZM15.856 2.72V0.895998H11.952V2.72H0.4V9.728H4.016V5.92H23.92V9.728H27.728V2.72H15.856ZM45.904 14.848V11.52H41.488V8.448H46.576V4.928H41.488V0.959999H37.744V4.928H31.856V8.448H37.744V11.52H32.4V14.848H37.712C37.68 15.936 37.616 16.992 37.488 18.048H31.28V21.568H36.688C35.856 24.096 34.384 26.432 31.76 28.384C32.752 28.96 34.224 30.24 34.928 31.072C38.256 28.416 39.92 25.12 40.72 21.568H46.736V18.048H41.296C41.392 16.992 41.456 15.904 41.456 14.848H45.904ZM58.032 2.688L57.424 2.848H47.728V30.816H51.504V6.368H55.888C54.992 8.832 53.776 12.064 52.72 14.368C55.696 16.864 56.56 19.168 56.56 20.896C56.56 22.016 56.336 22.752 55.696 23.072C55.28 23.264 54.8 23.328 54.288 23.36C53.744 23.392 53.008 23.36 52.144 23.296C52.784 24.352 53.136 25.984 53.168 27.008C54.16 27.04 55.184 27.008 55.984 26.944C56.912 26.816 57.68 26.528 58.352 26.112C59.664 25.28 60.272 23.68 60.24 21.344C60.24 19.232 59.632 16.704 56.56 13.856C57.936 11.136 59.568 7.552 60.816 4.448L58.032 2.688ZM79.376 7.328V9.536H76.656V7.328H79.376ZM73.36 7.328V12.32H82.8V7.328H84.624V8.928C84.624 11.744 85.168 12.64 87.792 12.64H89.712C91.664 12.64 92.432 11.744 92.752 8.768C91.888 8.544 90.544 8.064 89.904 7.584C89.84 9.472 89.712 9.824 89.328 9.824H88.432C88.08 9.824 88.016 9.728 88.016 8.896V7.328H92.272V4.384H88.016V1.216H84.624V4.384H82.8V1.28H79.376V4.384H76.656V1.312L73.36 1.28V4.384H71.568V1.248H68.176V4.384H63.792V7.328H67.952C67.568 8.704 66.544 10.08 64.016 10.912C64.752 11.52 65.744 12.64 66.192 13.344C69.584 11.872 70.992 9.6 71.408 7.328H73.36ZM75.984 16.608V19.008H67.728V16.608H75.984ZM88.336 19.008H79.696V16.608H88.336V19.008ZM64.208 20.448H67.312V28.896H71.024V22.016H75.984V30.784H79.696V22.016H85.264V25.408C85.264 25.76 85.104 25.856 84.656 25.856C84.208 25.888 82.544 25.888 81.104 25.824C81.584 26.688 82.128 28.096 82.288 29.088C84.528 29.088 86.16 29.088 87.44 28.544C88.656 28.032 89.008 27.104 89.008 25.472V20.448H92.048V13.536H64.208V20.448ZM101.648 1.024C100.048 5.568 97.264 10.112 94.384 12.992C95.024 13.92 96.08 16 96.432 16.96C97.136 16.192 97.872 15.328 98.576 14.368V30.72H102.224V8.704C103.408 6.592 104.432 4.352 105.264 2.144L101.648 1.024ZM107.568 15.136C106.832 18.688 105.488 22.304 103.664 24.544C104.592 25.024 106.192 25.984 106.928 26.592C108.72 24 110.352 19.968 111.28 15.904L107.568 15.136ZM120.88 10.144C120.72 11.552 120.528 12.896 120.368 13.888L123.6 14.432C124.048 12.576 124.592 9.6 124.976 7.008L122.288 6.496L121.68 6.624H110.672C111.248 5.056 111.76 3.488 112.176 1.856L108.464 1.024C107.376 5.408 105.456 9.824 103.024 12.544C103.888 13.12 105.424 14.368 106.096 15.04C107.152 13.696 108.208 12 109.104 10.144H112.816V26.464C112.816 26.88 112.656 27.008 112.24 27.008C111.792 27.008 110.448 27.008 109.104 26.976C109.68 28 110.256 29.696 110.416 30.816C112.464 30.816 114 30.656 115.12 30.048C116.272 29.408 116.592 28.352 116.592 26.528V10.144H120.88ZM117.744 15.968C119.28 19.264 120.624 23.648 120.976 26.496L124.624 25.248C124.176 22.368 122.8 18.112 121.136 14.816L117.744 15.968ZM127.312 13.472V17.6H156.752V13.472H127.312ZM183.472 10.368H175.376V20.192C175.376 23.872 176.4 24.896 179.952 24.896H184.496C187.6 24.896 188.528 23.552 188.944 18.784C187.984 18.56 186.416 17.952 185.616 17.344C185.488 20.928 185.296 21.504 184.176 21.504H180.464C179.216 21.504 178.992 21.344 178.992 20.192V13.632H183.472V14.464H187.152V2.112H175.088V5.44H183.472V10.368ZM169.328 20.416H173.872V17.12H169.328V13.664H174.16V10.368H168.624V7.36H173.36V4.096H168.624V0.959999H165.072V4.096H160.304V7.36H165.072V10.368H159.44V13.664H165.84V23.616C165.008 22.688 164.368 21.504 163.856 19.936C163.92 18.592 163.984 17.216 164.016 15.808L160.528 15.552C160.464 21.024 160.144 26.336 158.576 29.568C159.408 29.92 161.072 30.752 161.744 31.2C162.448 29.632 162.928 27.744 163.248 25.6C165.744 29.184 169.552 29.952 175.504 29.952H187.856C188.08 28.832 188.72 27.072 189.296 26.208C186.416 26.336 177.936 26.336 175.504 26.304C173.04 26.304 171.024 26.176 169.328 25.696V20.416ZM21.4701 87L14.9901 77.64H14.6061H7.83813V87H0.0621252V53.4H14.6061C17.5821 53.4 20.1581 53.896 22.3341 54.888C24.5421 55.88 26.2381 57.288 27.4221 59.112C28.6061 60.936 29.1981 63.096 29.1981 65.592C29.1981 68.088 28.5901 70.248 27.3741 72.072C26.1901 73.864 24.4941 75.24 22.2861 76.2L29.8221 87H21.4701ZM21.3261 65.592C21.3261 63.704 20.7181 62.264 19.5021 61.272C18.2861 60.248 16.5101 59.736 14.1741 59.736H7.83813V71.448H14.1741C16.5101 71.448 18.2861 70.936 19.5021 69.912C20.7181 68.888 21.3261 67.448 21.3261 65.592ZM50.287 87.576C45.487 87.576 41.743 86.248 39.055 83.592C36.399 80.936 35.071 77.144 35.071 72.216V53.4H42.847V71.928C42.847 77.944 45.343 80.952 50.335 80.952C52.767 80.952 54.623 80.232 55.903 78.792C57.183 77.32 57.823 75.032 57.823 71.928V53.4H65.503V72.216C65.503 77.144 64.159 80.936 61.471 83.592C58.815 86.248 55.087 87.576 50.287 87.576ZM104.003 53.4V87H97.6191L80.8671 66.6V87H73.1871V53.4H79.6191L96.3231 73.8V53.4H104.003ZM133.227 61.752H139.851V67.512H133.419V87H125.931V67.512H121.947V61.752H125.931V60.6C125.931 57.656 126.795 55.32 128.523 53.592C130.283 51.864 132.747 51 135.915 51C137.035 51 138.091 51.128 139.083 51.384C140.107 51.608 140.955 51.944 141.627 52.392L139.659 57.816C138.795 57.208 137.787 56.904 136.635 56.904C134.363 56.904 133.227 58.152 133.227 60.648V61.752ZM155.541 87.384C152.821 87.384 150.373 86.824 148.197 85.704C146.053 84.552 144.373 82.968 143.157 80.952C141.941 78.936 141.333 76.648 141.333 74.088C141.333 71.528 141.941 69.24 143.157 67.224C144.373 65.208 146.053 63.64 148.197 62.52C150.373 61.368 152.821 60.792 155.541 60.792C158.261 60.792 160.693 61.368 162.837 62.52C164.981 63.64 166.661 65.208 167.877 67.224C169.093 69.24 169.701 71.528 169.701 74.088C169.701 76.648 169.093 78.936 167.877 80.952C166.661 82.968 164.981 84.552 162.837 85.704C160.693 86.824 158.261 87.384 155.541 87.384ZM155.541 81.24C157.461 81.24 159.029 80.6 160.245 79.32C161.493 78.008 162.117 76.264 162.117 74.088C162.117 71.912 161.493 70.184 160.245 68.904C159.029 67.592 157.461 66.936 155.541 66.936C153.621 66.936 152.037 67.592 150.789 68.904C149.541 70.184 148.917 71.912 148.917 74.088C148.917 76.264 149.541 78.008 150.789 79.32C152.037 80.6 153.621 81.24 155.541 81.24ZM181.858 64.584C182.754 63.336 183.954 62.392 185.458 61.752C186.994 61.112 188.754 60.792 190.738 60.792V67.704C189.906 67.64 189.346 67.608 189.058 67.608C186.914 67.608 185.234 68.216 184.018 69.432C182.802 70.616 182.194 72.408 182.194 74.808V87H174.706V61.176H181.858V64.584ZM32.938 128.672H40.042V142.304C38.218 143.68 36.106 144.736 33.706 145.472C31.306 146.208 28.89 146.576 26.458 146.576C22.97 146.576 19.834 145.84 17.05 144.368C14.266 142.864 12.074 140.8 10.474 138.176C8.906 135.52 8.122 132.528 8.122 129.2C8.122 125.872 8.906 122.896 10.474 120.272C12.074 117.616 14.282 115.552 17.098 114.08C19.914 112.576 23.082 111.824 26.602 111.824C29.546 111.824 32.218 112.32 34.618 113.312C37.018 114.304 39.034 115.744 40.666 117.632L35.674 122.24C33.274 119.712 30.378 118.448 26.986 118.448C24.842 118.448 22.938 118.896 21.274 119.792C19.61 120.688 18.314 121.952 17.386 123.584C16.458 125.216 15.994 127.088 15.994 129.2C15.994 131.28 16.458 133.136 17.386 134.768C18.314 136.4 19.594 137.68 21.226 138.608C22.89 139.504 24.778 139.952 26.89 139.952C29.13 139.952 31.146 139.472 32.938 138.512V128.672ZM68.6733 146L62.1933 136.64H61.8093H55.0413V146H47.2653V112.4H61.8093C64.7853 112.4 67.3613 112.896 69.5373 113.888C71.7453 114.88 73.4413 116.288 74.6253 118.112C75.8093 119.936 76.4013 122.096 76.4013 124.592C76.4013 127.088 75.7933 129.248 74.5773 131.072C73.3933 132.864 71.6973 134.24 69.4893 135.2L77.0253 146H68.6733ZM68.5293 124.592C68.5293 122.704 67.9213 121.264 66.7053 120.272C65.4893 119.248 63.7133 118.736 61.3773 118.736H55.0413V130.448H61.3773C63.7133 130.448 65.4893 129.936 66.7053 128.912C67.9213 127.888 68.5293 126.448 68.5293 124.592ZM108.578 139.76V146H82.5621V112.4H107.954V118.64H90.2901V125.936H105.89V131.984H90.2901V139.76H108.578ZM140.781 139.76V146H114.765V112.4H140.157V118.64H122.493V125.936H138.093V131.984H122.493V139.76H140.781ZM177.784 112.4V146H171.4L154.648 125.6V146H146.968V112.4H153.4L170.104 132.8V112.4H177.784Z" fill="white"/>
</svg>
