<svg width="656" height="293" viewBox="0 0 656 293" fill="none" xmlns="http://www.w3.org/2000/svg">
<path opacity="0.4" d="M102.564 291.857C89.5056 256.907 79.4496 216.221 80.8798 178.98C82.101 150.189 89.5279 119.313 127.123 83.8512C200.976 14.5321 285.65 81.4188 338.043 34.8906C389.268 -10.5574 485.122 -11.2336 527.997 30.702C549.771 52.5356 553.968 79.4751 546.134 108.671C543.714 117.612 540.504 125.651 536.616 133.941C524.899 158.535 534.552 173.263 549.321 186.731C562.193 198.498 576.315 207.42 586.99 222.224C602.01 243.551 598.162 268.366 586.36 291.996L102.564 291.857Z" fill="#FFC94F"/>
<path opacity="0.5" d="M546.134 108.668C553.968 79.475 549.771 52.5333 527.997 30.6997C527.715 30.423 527.428 30.1485 527.139 29.874L84.8703 150.131C82.3346 160.026 81.278 169.612 80.8821 178.978C80.7598 182.165 80.7242 185.378 80.7642 188.61L537.788 131.399C541.152 123.993 543.961 116.695 546.134 108.668Z" fill="#F8FBFF"/>
<path opacity="0.5" d="M441.675 290.779H102.34C101.245 287.992 98.5782 280.985 95.3241 270.979C92.9753 263.76 90.3239 254.976 87.7393 245.09C85.9354 238.195 85.4194 237.26 83.9402 226.771L82.7524 215.466L116.446 190.439C116.446 190.439 186.604 188.161 215.516 221.413C244.427 254.67 325.186 226.33 347.187 245.262C369.187 264.195 387.446 281.021 408.508 276.343C429.572 271.662 441.675 290.779 441.675 290.779Z" fill="#FFC94F"/>
<path d="M237.443 73.9452L109.25 103.737C115.125 96.1024 121.095 89.5193 127.138 83.8466L237.443 73.9452Z" fill="#F8FBFF"/>
<path d="M432.159 37.8764C436.12 37.8764 439.332 34.6543 439.332 30.6796C439.332 26.7049 436.12 23.4828 432.159 23.4828C428.197 23.4828 424.985 26.7049 424.985 30.6796C424.985 34.6543 428.197 37.8764 432.159 37.8764Z" fill="#F8FBFF"/>
<path d="M286.178 123.566C286.171 123.57 286.169 123.575 286.163 123.579C286.13 123.583 286.137 123.579 286.178 123.566Z" fill="#FC9490"/>
<path d="M320.006 253.097C320.006 253.097 326.276 261.729 329.039 263.912C330.518 265.081 334.535 266.65 334.958 268.582C335.38 270.515 316.767 287.611 316.767 287.611C315.782 288.486 315.893 287.274 316.191 285.988C316.681 283.884 317.197 282.326 319.666 276.665C319.826 276.297 320.282 274.799 320.455 274.268C320.891 272.923 321.058 271.253 321.096 269.691C321.158 267.092 315.19 259.872 315.19 259.872L320.006 253.097Z" fill="#E3A390"/>
<path d="M275.69 139.41C275.69 139.41 283.579 151.3 285.459 161.141C287.289 170.726 284.247 199.663 287.427 213.077C292.839 218.107 302.163 223.969 306.485 230.719C311.383 238.367 325.54 257.766 325.54 257.766L317.362 263.898L270.97 220.753L252.188 163.192L247.05 143.925L275.69 139.41Z" fill="#27BDE0"/>
<path d="M320.456 274.264C326.37 271.338 329.233 267.409 330.548 264.874C332.318 265.896 337.085 268.078 336.664 268.687C333.372 273.481 329.956 279.441 316.737 290.733C316.263 291.137 314.324 288.807 314.317 288.185C314.299 286.462 320.285 274.797 320.456 274.264Z" fill="#00A59B"/>
<path d="M246.214 51.9286C246.214 51.9286 254.352 51.0047 258.354 54.3722C262.353 57.7374 269.909 60.3349 274.907 59.9756C279.903 59.6186 290.383 60.6808 294.071 70.5867C297.759 80.4927 292.392 90.9029 281.593 91.405C270.794 91.9071 267.269 82.0414 263.369 78.357C259.47 74.6727 253.58 67.6946 250.953 65.5099C248.327 63.3252 246.024 56.4185 246.024 56.4185L246.214 51.9286Z" fill="#004F74"/>
<path d="M241.008 64.7623C253.418 69.1317 260.337 58.0096 261.029 53.9169C261.541 50.8864 263.598 47.76 260.211 41.7013C257.537 36.9168 254.641 30.9541 244.209 31.9137C235.199 32.7416 229.564 42.3507 231.106 51.297C231.996 56.4653 234.482 62.4638 241.008 64.7623Z" fill="#004F74"/>
<path d="M251.641 219.247C251.641 219.247 261.145 239.451 263.093 242.727C265.033 245.988 260.329 260.339 259.953 256.21C259.866 255.262 259.381 252.203 259.274 251.946C258.694 250.567 245.312 228.608 245.312 228.608L251.641 219.247Z" fill="#E2A290"/>
<path d="M257.292 266.199L259.35 252.281C259.35 252.281 262.424 249.179 263.138 242.743C263.138 242.743 266.167 241.98 269.555 242.785C270.14 242.924 274.113 243.845 274.119 244.448C274.146 246.666 271.748 252.473 269.124 258.815C269.124 258.815 264.94 266.721 261.43 271.552C257.915 276.384 257.292 266.199 257.292 266.199Z" fill="#00A59B"/>
<path d="M214.311 187.389C216.173 179.735 246.794 149.372 246.794 149.372L247.05 137.806L277.765 140.334C277.765 140.334 282.352 154.331 280.577 160.068C276.366 173.676 269.391 177.34 260.503 181.047C252.326 184.457 238.164 192.502 238.164 192.502L262.171 234.861C262.171 234.861 253.247 241.359 250.313 242.187C249.982 242.283 211.993 196.911 214.311 187.389Z" fill="#0093C1"/>
<path d="M236.856 120.67C238.039 119.3 243.88 102.259 243.88 102.259L232.834 99.5011C232.834 99.5011 229.749 108.635 229.193 109.612C229.193 109.612 211.303 108.209 202.597 106.885C201.93 106.426 199.486 105.171 199.056 104.453C199.052 104.444 199.045 104.435 199.041 104.428C198.391 103.348 196.823 101.362 196.334 100.998C195.767 100.574 194.57 99.7376 193.845 99.2444C193.117 98.7512 192.286 98.142 191.87 97.9256C191.616 97.7939 191.202 97.3097 190.918 96.9481C190.493 96.4126 189.628 96.6781 189.581 97.361C189.539 98.0059 190.09 98.7468 190.437 99.2043C191.414 100.499 193.598 101.869 193.396 102.009C193.193 102.15 188.931 101.195 188.438 101.117C187.944 101.039 182.984 99.9541 181.952 100.066C180.919 100.175 180.817 100.838 181.282 101.213C181.682 101.536 188.424 103.542 188.424 103.542C188.424 103.542 189.283 103.799 188.878 104.058C188.473 104.315 182.347 102.507 181.384 102.407C180.421 102.308 179.732 102.697 180.226 103.469C180.826 104.406 187.481 105.935 187.481 105.935C187.481 105.935 188.311 106.14 188.102 106.448C187.893 106.754 182.708 105.127 182.167 105.212C181.627 105.296 181.204 105.892 181.798 106.504C182.499 107.222 188.451 108.534 188.451 108.534C188.451 108.534 188.874 108.762 188.642 108.912C188.411 109.061 183.891 107.992 183.322 108.264C182.844 108.494 183.041 108.927 183.041 108.927C183.259 109.945 187.797 110.375 189.801 111.208C190.379 111.449 194.803 112.308 200.849 113.41C200.849 113.399 200.849 113.388 200.847 113.377C207.622 115.102 225.966 120.038 225.966 120.038C225.966 120.038 235.672 122.042 236.856 120.67Z" fill="#E2A290"/>
<path d="M247.626 75.7841L242.207 106.321C238.829 105.107 233.846 103.326 230.474 102.085C235.225 77.0538 247.626 75.7841 247.626 75.7841Z" fill="#00A59B"/>
<path d="M258.233 71.7137C258.233 71.7137 268.423 69.3884 273.214 73.1954C278.005 77.0003 270.569 114.439 270.743 120.241C270.914 126.043 277.858 140.421 277.858 140.421C277.858 140.421 252.668 149.533 245.016 146.052C245.016 146.052 239.5 105.004 239.587 100.827C239.676 96.6492 243.195 79.1448 244.416 77.2814C245.637 75.4159 258.233 71.7137 258.233 71.7137Z" fill="#0ED8BF"/>
<path d="M252.581 58.4336C252.581 58.4336 252.684 58.7304 252.864 59.2325C253.722 61.647 256.819 69.6182 258.376 71.6958C260.26 74.2063 255.282 83.9872 248.965 83.9136C247.085 83.8913 249.218 75.6233 248.925 74.8334C248.362 73.3181 247.599 71.2495 246.816 69.1295C246.376 67.9334 245.926 66.7194 245.506 65.5813C244.311 62.3411 243.335 59.6922 243.335 59.6922L252.581 58.4336Z" fill="#E2A290"/>
<path d="M252.864 59.2325C252.686 58.7282 252.581 58.4336 252.581 58.4336L243.337 59.6922C243.337 59.6922 244.313 62.3411 245.508 65.5813C245.926 66.7149 246.371 67.92 246.809 69.1094C248.197 68.6698 249.572 67.7348 250.848 66.1816C252.243 64.4901 253.03 62.5999 253.377 60.6629C253.173 60.0961 252.997 59.6074 252.864 59.2325Z" fill="#D8735A"/>
<path d="M242.681 37.4391C242.681 37.4391 247.332 36.1225 250.922 39.5055C254.514 42.8886 259.635 54.3164 253.3 62.0064C246.965 69.6941 238.493 63.5216 236.159 55.9008C233.824 48.28 231.884 38.8963 242.681 37.4391Z" fill="#E2A290"/>
<path d="M240.563 36.841C240.563 36.841 248.72 47.1776 253.333 46.9701C257.946 46.7625 259.51 52.7029 259.51 52.7029C259.51 52.7029 255.655 39.0547 250.742 37.0976C245.828 35.1405 240.563 36.841 240.563 36.841Z" fill="#004F74"/>
<path d="M248.17 56.8158L240.188 58.427C240.188 58.427 241.035 61.6739 244.567 61.0736C248.876 60.3461 248.17 56.8158 248.17 56.8158Z" fill="white"/>
<path d="M291.669 96.156C291.669 96.156 273.312 92.4516 267.976 88.7873C262.64 85.1231 260.749 75.5988 265.12 71.8587C269.491 68.1186 296.027 82.4631 296.027 82.4631L291.669 96.156Z" fill="#0ED8BF"/>
<path d="M315.15 91.0613C313.793 89.8629 295.826 83.0968 295.826 83.0968L292.271 94.2636C292.271 94.2636 303.092 98.0862 304.062 98.6553C304.062 98.6553 302.507 116.59 301.113 125.314C300.65 125.979 299.378 128.42 298.657 128.844C298.648 128.848 298.639 128.855 298.63 128.86C297.549 129.502 295.557 131.058 295.187 131.544C294.76 132.109 293.915 133.303 293.417 134.026C292.919 134.751 292.305 135.579 292.087 135.994C291.953 136.246 291.466 136.657 291.106 136.94C290.568 137.362 290.826 138.232 291.506 138.283C292.149 138.333 292.892 137.784 293.35 137.44C294.649 136.471 296.033 134.293 296.17 134.496C296.308 134.7 295.319 138.969 295.236 139.462C295.154 139.957 294.031 144.922 294.131 145.958C294.231 146.993 294.889 147.103 295.27 146.638C295.597 146.239 297.654 139.495 297.654 139.495C297.654 139.495 297.919 138.636 298.172 139.044C298.426 139.453 296.569 145.581 296.462 146.547C296.355 147.513 296.738 148.209 297.509 147.721C298.45 147.127 300.03 140.464 300.03 140.464C300.03 140.464 300.243 139.631 300.546 139.846C300.848 140.058 299.182 145.246 299.262 145.788C299.342 146.33 299.934 146.761 300.546 146.17C301.268 145.474 302.628 139.513 302.628 139.513C302.628 139.513 302.859 139.089 303.006 139.323C303.152 139.558 302.047 144.081 302.314 144.655C302.539 145.137 302.972 144.942 302.972 144.942C303.989 144.733 304.456 140.185 305.303 138.181C305.548 137.603 306.444 133.171 307.597 127.117C307.585 127.117 307.574 127.117 307.563 127.119C309.343 120.337 314.423 101.976 314.423 101.976C314.423 101.976 316.505 92.2618 315.15 91.0613Z" fill="#E2A290"/>
<path d="M257.693 50.7168C257.088 52.5802 255.764 53.7741 254.732 53.3791C253.702 52.9863 253.355 51.1565 253.96 49.2909C254.565 47.4275 255.889 46.2336 256.921 46.6264C257.951 47.0214 258.295 48.8513 257.693 50.7168Z" fill="#E2A290"/>
<path d="M427.159 122.265C426.207 120.708 411.674 109.885 411.674 109.885L405.666 119.688C405.666 119.688 413.471 125.443 414.236 126.28C414.236 126.28 407.441 143.092 403.519 151.079C402.877 151.584 400.93 153.556 400.112 153.75C400.103 153.753 400.092 153.755 400.083 153.757C398.853 154.054 396.473 154.96 395.975 155.319C395.396 155.737 394.231 156.634 393.537 157.185C392.843 157.734 392.007 158.35 391.673 158.687C391.47 158.89 390.879 159.142 390.447 159.305C389.805 159.55 389.796 160.467 390.436 160.717C391.041 160.954 391.918 160.648 392.463 160.454C393.999 159.907 395.977 158.22 396.05 158.459C396.124 158.696 393.908 162.512 393.684 162.965C393.459 163.418 390.91 167.867 390.701 168.894C390.492 169.92 391.092 170.222 391.595 169.889C392.027 169.601 396.001 163.717 396.001 163.717C396.001 163.717 396.511 162.967 396.633 163.438C396.755 163.906 393.156 169.258 392.769 170.155C392.38 171.054 392.543 171.837 393.432 171.596C394.513 171.304 398.003 165.357 398.003 165.357C398.003 165.357 398.453 164.618 398.684 164.915C398.913 165.21 395.774 169.711 395.692 170.257C395.608 170.804 396.05 171.393 396.815 171.005C397.716 170.547 400.786 165.212 400.786 165.212C400.786 165.212 401.133 164.873 401.206 165.143C401.28 165.413 398.877 169.441 398.964 170.072C399.037 170.603 399.513 170.545 399.513 170.545C400.554 170.646 402.349 166.403 403.757 164.725C404.164 164.241 406.335 160.24 409.234 154.75C409.222 154.748 409.211 154.744 409.202 154.741C412.919 148.738 423.238 132.564 423.238 132.564C423.238 132.564 428.111 123.823 427.159 122.265Z" fill="#E2A290"/>
<path d="M350.784 270.283C350.784 270.283 347.452 279.234 347.189 282.378C347.049 284.063 347.861 287.843 346.633 289.113C345.403 290.383 323.509 284.868 323.509 284.868C322.373 284.563 323.329 284.047 324.433 283.637C326.239 282.965 327.651 282.583 333.083 281.641C333.437 281.581 334.776 281.184 335.256 281.05C336.473 280.713 337.796 280.015 338.977 279.274C340.943 278.04 343.372 270.01 343.372 270.01L350.784 270.283Z" fill="#E3A390"/>
<path d="M335.256 281.054C340.347 284.043 344.685 284.248 347.218 283.982C347.329 285.812 348.057 290.456 347.396 290.443C342.207 290.34 336.088 290.719 321.172 286.383C320.638 286.227 321.414 283.627 321.875 283.315C323.145 282.454 334.773 281.186 335.256 281.054Z" fill="#0093C1"/>
<path d="M413.526 181.054C413.526 181.054 408.568 192.823 402.171 199.082C395.941 205.177 376.703 218.073 368.291 227.066C367.217 233.598 363.66 242.562 360.768 249.125C357.492 256.563 350.039 276.727 350.039 276.727L341.444 273.626L350.677 217.616L384.246 175.178L396.048 161.831L413.526 181.054Z" fill="#00A59B"/>
<path d="M445.307 220.122C445.307 220.122 466.049 226.647 469.681 227.412C473.298 228.173 480.451 241.056 477.248 238.594C476.512 238.028 474.003 236.354 473.747 236.26C472.377 235.767 447.814 230.871 447.814 230.871L445.307 220.122Z" fill="#E2A290"/>
<path d="M482.632 247.119L474.038 236.428C474.038 236.428 473.853 232.163 469.723 227.39C469.723 227.39 471.182 224.705 473.998 222.797C474.483 222.469 477.77 220.218 478.206 220.61C479.812 222.059 482.377 227.626 485.177 233.714C485.177 233.714 488.066 241.958 489.198 247.684C490.333 253.41 482.632 247.119 482.632 247.119Z" fill="#0093C1"/>
<path d="M397.818 225.921C393.574 219.517 396.597 146.007 396.597 146.007C396.597 146.007 417.505 150.648 421.518 153.902C426.865 158.24 425.795 178.269 422.566 187.121C419.594 195.264 413.335 214.241 413.335 214.241L463.446 222.873C463.446 222.873 463.539 230.94 462.189 233.598C462.038 233.899 403.097 233.89 397.818 225.921Z" fill="#0ED8BF"/>
<path d="M380.167 99.7911L390.091 117.771C386.544 120.118 381.321 123.584 377.762 125.914C366.387 109.822 380.167 99.7911 380.167 99.7911Z" fill="#0093C1"/>
<path d="M392.415 93.2884C392.415 93.2884 403.059 91.367 403.635 91.7196C408.622 94.7612 404.996 90.0281 417.537 128.212C419.36 133.769 426.476 161.081 426.476 161.081C426.476 161.081 398.83 171.23 390.727 168.764C390.727 168.764 378.073 129.029 377.613 124.843C377.152 120.656 378.369 102.701 379.343 100.679C380.317 98.6531 392.415 93.2884 392.415 93.2884Z" fill="#27BDE0"/>
<path d="M375.585 56.2243C375.585 56.2243 369.187 55.8583 367.212 62.8476C365.235 69.8369 367.085 68.6742 366.147 72.1532C365.208 75.6322 360.29 76.449 361.652 81.0014C363.011 85.5538 365.339 85.6274 365.339 85.6274C365.339 85.6274 364.483 89.7447 367.686 92.7506C370.889 95.7565 377.104 97.3075 381.368 95.4753C381.368 95.4753 389.09 97.1334 395.227 93.4089C401.364 89.6867 399.046 90.3829 401.767 89.5639C404.487 88.7472 410.726 82.7911 407.886 77.692C407.886 77.692 410.773 70.9995 405.119 67.94C399.464 64.8806 397.318 60.6919 393.047 55.5816C388.772 50.4669 378.185 53.899 375.585 56.2243Z" fill="#004F74"/>
<path d="M381.056 88.62C381.056 88.62 383.703 96.6045 383.175 97.5886C382.648 98.5727 381.97 100.144 383.651 101.733C385.333 103.322 389.779 100.648 391.695 98.874C393.532 97.1713 394.333 94.788 394.333 94.788L389.399 82.3627L381.056 88.62Z" fill="#E3A390"/>
<path d="M385.253 90.9966C386.636 89.9879 389.023 88.129 390.093 84.1033L389.401 82.3627L381.056 88.62C381.056 88.62 381.701 90.5681 382.292 92.6591C383.589 92.2083 384.592 91.4786 385.253 90.9966Z" fill="#A15845"/>
<path d="M388.332 72.7557C388.332 72.7557 387.146 67.9512 390.318 68.0003C393.49 68.0493 393.416 75.862 390.943 76.3485C388.472 76.835 388.332 72.7557 388.332 72.7557Z" fill="#E3A390"/>
<path d="M374.604 60.0202C374.604 60.0202 370.04 61.281 368.778 65.5187C367.517 69.7565 368.02 80.6309 373.934 86.462C379.849 92.2931 384.222 89.1042 386.028 87.7898C387.832 86.4754 391.344 83.7105 391.41 76.5806C391.475 69.4463 385.634 55.2156 374.604 60.0202Z" fill="#E3A390"/>
<path d="M374.625 82.1529L383.48 79.87C383.48 79.87 384.141 83.2977 380.277 84.4157C375.564 85.7769 374.625 82.1529 374.625 82.1529Z" fill="white"/>
<path d="M413.335 214.241C413.335 214.241 421.519 213.541 422.146 213.331C422.775 213.121 463.446 222.873 463.446 222.873C463.446 222.873 440.796 226.015 439.958 225.596C439.119 225.174 413.335 214.241 413.335 214.241Z" fill="#0ED8BF"/>
<path d="M392.995 125.44C392.99 125.441 393 125.434 392.995 125.44C392.995 125.44 392.999 125.481 393.126 125.549C393.922 126.08 394.371 126.623 394.485 127.817C394.627 129.304 393.467 130.51 392.03 130.655L392.235 132.707C394.736 132.455 396.836 130.409 396.577 127.821C396.485 126.893 396.145 126.008 395.433 125.177C395.458 125.14 395.577 124.964 395.665 124.758C395.791 124.466 395.785 124.128 395.674 123.01L395.19 118.169L388.772 118.816L389.157 122.672L387.108 122.879L387.32 125L391.457 124.582L391.078 120.778L393.387 120.546L393.715 123.831C393.72 123.824 393.902 124.732 392.995 125.44Z" fill="white"/>
<path d="M386.747 119.02L386.147 119.08L386.148 119.086C385.064 119.219 383.955 119.686 383.285 120.644C382.574 121.653 382.583 122.485 382.718 123.845C382.811 124.773 383.689 133.568 383.689 133.568L390.215 132.91L389.834 129.094L391.9 128.886L391.686 126.742L387.537 127.16L387.922 131.01L385.556 131.249L384.751 123.186C384.751 123.186 384.423 121.449 386.484 121.194L386.952 121.124L386.747 119.02Z" fill="white"/>
<path d="M394.144 144.016C395.532 142.834 404.865 125.838 404.865 125.838L394.284 120.663C394.284 120.663 388.912 130.935 388.209 131.821C388.209 131.821 370.609 127.661 362.139 125.001C361.545 124.441 359.303 122.814 358.985 122.033C358.98 122.024 358.978 122.015 358.973 122.006C358.493 120.83 357.234 118.61 356.805 118.173C356.304 117.664 355.241 116.646 354.594 116.041C353.947 115.437 353.21 114.702 352.83 114.424C352.599 114.254 352.261 113.707 352.031 113.303C351.691 112.703 350.788 112.835 350.637 113.509C350.497 114.145 350.933 114.968 351.206 115.477C351.98 116.916 353.944 118.619 353.722 118.726C353.499 118.835 349.4 117.224 348.922 117.07C348.441 116.916 343.668 115.071 342.625 115.022C341.582 114.972 341.377 115.615 341.782 116.062C342.131 116.445 348.537 119.485 348.537 119.485C348.537 119.485 349.353 119.875 348.909 120.069C348.466 120.264 342.643 117.516 341.7 117.269C340.754 117.021 340.009 117.302 340.381 118.146C340.834 119.172 347.229 121.721 347.229 121.721C347.229 121.721 348.025 122.053 347.77 122.328C347.514 122.6 342.6 120.181 342.049 120.181C341.497 120.181 340.986 120.71 341.484 121.411C342.071 122.234 347.799 124.459 347.799 124.459C347.799 124.459 348.186 124.751 347.932 124.865C347.678 124.979 343.341 123.216 342.734 123.399C342.222 123.553 342.354 124.017 342.354 124.017C342.416 125.064 346.867 126.193 348.735 127.331C349.273 127.659 353.548 129.199 359.4 131.229C359.4 131.218 359.403 131.207 359.405 131.196C365.886 133.961 383.401 141.709 383.401 141.709C383.401 141.709 392.754 145.199 394.144 144.016Z" fill="#E2A290"/>
<path d="M404.523 128.177C404.523 128.177 413.883 111.641 414.634 105.12C415.384 98.5973 409.665 90.7913 403.915 91.6594C398.166 92.5297 391.199 122.433 391.199 122.433L404.523 128.177Z" fill="#27BDE0"/>
<path opacity="0.5" d="M7.17332 113.515C11.135 113.515 14.3466 110.293 14.3466 106.318C14.3466 102.344 11.135 99.1217 7.17332 99.1217C3.21161 99.1217 0 102.344 0 106.318C0 110.293 3.21161 113.515 7.17332 113.515Z" fill="#FFC94F"/>
<path opacity="0.5" d="M644.587 190.406C648.549 190.406 651.76 187.184 651.76 183.209C651.76 179.235 648.549 176.012 644.587 176.012C640.625 176.012 637.414 179.235 637.414 183.209C637.414 187.184 640.625 190.406 644.587 190.406Z" fill="#FFC94F"/>
<path d="M93.4352 61.3837L85.4521 62.9949C85.4521 62.9949 86.2996 66.2418 89.8318 65.6415C94.1403 64.9118 93.4352 61.3837 93.4352 61.3837Z" fill="white"/>
<path d="M201.578 291.858C201.578 291.858 184.126 268.536 173.145 264.958C162.164 261.381 172.513 275.59 172.513 275.59C172.513 275.59 153.033 254.155 145.882 256.088C139.329 257.86 145.882 271.144 145.882 271.144C145.882 271.144 138.502 263.787 129.551 263.787C120.601 263.787 136.469 291.333 136.469 291.333L201.578 291.858Z" fill="#FFC94F"/>
<path d="M147.586 291.215C147.586 291.215 132.926 251.77 114.771 256.331C100.059 260.027 110.518 279.874 109.622 278.973C108.725 278.071 100.834 264.599 88.0661 264.599C75.2987 264.599 91.9853 282.78 91.9853 282.78C91.9853 282.78 64.7823 274.233 62.6537 283.208C60.8854 290.657 70.7723 291.215 70.7723 291.215H147.586Z" fill="#EBBE44"/>
<path d="M419.559 291.858C419.559 291.858 446.33 256.079 463.177 250.591C480.023 245.104 464.147 266.9 464.147 266.9C464.147 266.9 494.032 234.02 505 236.983C515.054 239.701 505 260.082 505 260.082C505 260.082 516.324 248.797 530.054 248.797C543.785 248.797 519.44 291.057 519.44 291.057L419.559 291.858Z" fill="#FFC94F"/>
<path d="M505 291.054C505 291.054 523.299 241.815 545.965 247.507C564.331 252.122 551.272 276.897 552.393 275.77C553.512 274.643 563.363 257.828 579.3 257.828C595.237 257.828 574.407 280.523 574.407 280.523C574.407 280.523 608.365 269.854 611.023 281.059C613.23 290.358 600.887 291.054 600.887 291.054H505Z" fill="#EBBE44"/>
<path d="M46.2852 56.3805C42.7842 54.1177 28.135 35.6269 25.3391 32.65C25.3057 32.2974 25.0255 30.2623 22.7767 27.6915C21.1886 25.875 19.963 21.7131 18.9398 22.9026C17.9167 24.0942 20.5035 27.388 19.3313 27.4192C18.1591 27.4505 12.2848 20.9321 11.3595 22.0122C10.4319 23.0922 16.3908 28.8809 15.3409 28.9077C14.2911 28.9345 9.44657 23.0632 8.13647 24.5896C6.82636 26.116 14.4757 30.9674 13.7728 31.7864C13.0699 32.6054 8.32775 29.421 7.27122 30.6506C6.21691 31.8779 13.9574 34.6897 13.3391 34.7075C12.7229 34.7232 8.2677 34.6384 8.24101 35.4975C8.21209 36.4705 19.527 37.8942 20.9239 39.5657C23.9156 44.2609 35.6375 62.582 40.9914 66.3221C47.5419 70.8968 78.226 92.1034 78.226 92.1034L83.5598 79.5999C83.562 79.5977 50.438 59.0628 46.2852 56.3805Z" fill="#E3A390"/>
<path d="M19.3493 29.5035C19.0645 30.0793 18.9444 30.7019 18.9088 31.329C18.9311 31.4294 18.6731 33.4601 20.408 34.9843C19.7274 33.7391 18.9778 32.351 19.3493 29.5035Z" fill="#DC8B7F"/>
<path d="M138.571 46.7223C140.989 43.7565 148.569 23.4805 150.171 20.093C150.1 19.7761 149.773 17.9217 151.012 15.043C151.886 13.01 151.786 9.03113 153.011 9.78093C154.239 10.5307 152.907 14.1369 153.939 13.8312C154.971 13.5255 158.261 6.17918 159.373 6.85758C160.485 7.53597 156.915 14.2731 157.838 14.0008C158.761 13.7286 161.337 7.23471 162.909 8.19429C164.482 9.15386 159.172 15.5518 160.015 16.0673C160.858 16.5827 164.102 12.4633 165.367 13.2354C166.633 14.0075 160.672 18.6514 161.214 18.4907C161.757 18.3301 165.618 16.9956 165.883 17.7387C166.183 18.5778 156.712 23.023 155.963 24.8775C154.675 29.8182 149.599 49.1212 145.98 53.899C141.552 59.7435 120.748 86.9284 120.748 86.9284L112.578 77.5313C112.58 77.5268 135.704 50.2392 138.571 46.7223Z" fill="#E3A390"/>
<path d="M154.51 15.6544C154.92 16.0762 155.2 16.585 155.407 17.1228C155.416 17.2187 156.212 18.9147 155.126 20.7357C155.371 19.4548 155.636 18.0333 154.51 15.6544Z" fill="#DC8B7F"/>
<path d="M67.1825 267.478C67.1825 267.478 65.7789 278.251 66.2905 281.804C66.5641 283.705 68.4281 287.689 67.3915 289.411C66.355 291.134 40.7357 290.637 40.7357 290.637C39.4011 290.588 40.3264 289.773 41.443 289.037C43.2691 287.829 44.7349 287.046 50.5003 284.609C50.8762 284.451 52.2553 283.667 52.7535 283.397C54.0125 282.712 55.3003 281.599 56.4147 280.476C58.2742 278.604 58.9126 269.084 58.9126 269.084L67.1825 267.478Z" fill="#E3A390"/>
<path d="M53.0984 283.351C59.3375 285.796 64.2354 285.25 67.0269 284.498C67.4784 286.535 69.1177 291.621 68.377 291.723C62.5427 292.536 55.7498 294.058 38.258 291.86C37.6307 291.781 38.04 288.72 38.5004 288.287C39.7727 287.091 52.5824 283.587 53.0984 283.351Z" fill="#27BDE0"/>
<path d="M113.248 150.673C113.248 150.673 110.766 164.988 105.289 173.562C99.9556 181.913 81.6542 201.115 74.641 213.239C75.117 220.753 73.7846 231.618 72.2632 239.634C70.5372 248.719 67.4365 272.976 67.4365 272.976L57.1425 271.74L53.0698 207.301L79.372 151.664L89.021 133.847L113.248 150.673Z" fill="#00A59B"/>
<path d="M151.025 221.94C151.025 221.94 172.118 231.44 175.861 232.705C179.587 233.964 185.532 248.469 182.458 245.47C181.751 244.78 179.311 242.694 179.053 242.564C177.667 241.87 152.335 233.611 152.335 233.611L151.025 221.94Z" fill="#E2A290"/>
<path d="M187.078 255.15L179.336 242.776C179.336 242.776 179.671 238.248 175.906 232.687C175.906 232.687 177.783 230.034 180.995 228.374C181.549 228.088 185.303 226.124 185.715 226.595C187.23 228.327 189.245 234.531 191.442 241.312C191.442 241.312 193.464 250.384 193.945 256.574C194.425 262.762 187.078 255.15 187.078 255.15Z" fill="#27BDE0"/>
<path d="M100.137 222.096C96.4562 214.797 88.8892 149.135 88.8892 149.135L96.6764 153.755L123.426 148.392C124.304 147.502 122.396 209.975 122.396 209.975L169.838 227.129C169.838 227.129 167.171 238.3 165.414 240.94C165.218 241.236 104.717 231.177 100.137 222.096Z" fill="#0ED8BF"/>
<path d="M69.0509 68.5091L61.9287 83.5922L76.1775 94.9531C76.1775 94.9531 78.6198 104.638 78.1593 108.363C77.6989 112.087 77.7545 156.328 77.7545 156.328C77.7545 156.328 111.946 160.847 125.599 148.47C125.599 148.47 116.931 101.996 117.698 98.9052C118.466 95.8145 133.31 78.9171 133.31 78.9171L118.951 65.6549L108.636 75.8665C108.636 75.8665 96.463 81.8561 83.9469 77.7277C82.4477 77.2323 69.0509 68.5091 69.0509 68.5091Z" fill="#27BDE0"/>
<path d="M79.2713 36.5017C80.5103 35.821 81.718 35.0846 82.8636 34.2478C84.1603 33.2994 85.853 32.1635 86.9785 31.7864C89.3474 30.9942 93.5691 30.5791 96.3027 32.8441C99.7081 35.6648 104.381 32.1412 106.134 49.5295C108.116 69.2119 97.4905 68.7433 97.188 68.4532C96.8855 68.1631 86.0065 57.4739 86.0065 57.4739C86.0065 57.4739 84.0491 65.1728 84.0068 64.9095C83.9646 64.6529 64.3953 44.6692 79.2713 36.5017Z" fill="#004F74"/>
<path d="M100.286 54.4189C100.133 56.5768 101.185 58.4112 102.64 58.5161C104.094 58.6209 105.398 56.9562 105.551 54.7983C105.705 52.6403 104.653 50.806 103.198 50.7011C101.743 50.5962 100.44 52.261 100.286 54.4189Z" fill="#E2A290"/>
<path d="M75.6856 56.1238C76.1683 58.2326 77.7097 59.6787 79.131 59.3506C80.5524 59.0248 81.3131 57.0499 80.8326 54.9411C80.35 52.8323 78.8085 51.3862 77.3872 51.7143C75.9637 52.0401 75.2029 54.015 75.6856 56.1238Z" fill="#E2A290"/>
<path d="M89.5786 69.0982C89.6342 69.2945 90.4216 76.6208 90.8376 80.4925C90.9933 81.9364 91.883 83.2083 92.9662 83.5408C95.8622 84.4268 101.305 85.2681 103.46 80.0864C103.656 79.6155 103.665 79.0085 103.489 78.4373L98.4268 61.8456L89.5786 69.0982Z" fill="#E2A290"/>
<path d="M89.9678 72.4633C92.8305 73.0279 96.2069 71.9099 99.1652 68.8348C99.5389 68.4465 99.8837 68.047 100.197 67.6409L98.905 63.5504L89.4629 68.8816C89.4829 68.9463 89.801 70.957 89.9678 72.4633Z" fill="#DC8B7F"/>
<path d="M89.8723 38.847C89.8723 38.847 94.5077 39.4696 97.9309 43.6359C101.354 47.8 105.193 60.6717 96.9967 67.6543C88.8002 74.6391 80.4369 66.7081 79.0689 58.3129C77.6988 49.9156 79.258 38.7287 89.8723 38.847Z" fill="#E2A290"/>
<path d="M94.6026 61.3795L86.6196 62.9907C86.6196 62.9907 87.4671 66.2376 90.9993 65.6374C95.3077 64.9099 94.6026 61.3795 94.6026 61.3795Z" fill="white"/>
<path d="M101.626 51.3104C101.626 51.3104 98.9987 50.449 96.9857 47.4766C94.9727 44.5041 86.6005 40.7573 80.2724 44.7384C73.9443 48.7195 81.7827 36.7583 87.7949 36.6579C88.3443 36.649 94.8482 35.4529 94.8482 35.4529C94.8482 35.4529 100.703 39.7687 100.976 40.3043C101.247 40.8399 103.69 46.7513 103.69 46.7513L101.626 51.3104Z" fill="#004F74"/>
<path d="M611.659 292.119H76.2264C76.2131 292.119 76.1997 292.107 76.1997 292.092V290.663C76.1997 290.65 76.2108 290.637 76.2264 290.637H611.659C611.672 290.637 611.686 290.648 611.686 290.663V292.092C611.686 292.107 611.674 292.119 611.659 292.119Z" fill="#004F74"/>
<path d="M636.551 251.007C636.551 251.007 643.815 259.301 646.865 261.287C648.498 262.352 652.779 263.593 653.398 265.541C654.016 267.489 636.471 286.794 636.471 286.794C635.539 287.785 635.539 286.531 635.726 285.181C636.031 282.972 636.415 281.322 638.422 275.273C638.553 274.878 638.882 273.295 639.009 272.735C639.331 271.312 639.345 269.58 639.238 267.971C639.058 265.291 632.236 258.422 632.236 258.422L636.551 251.007Z" fill="#E3A390"/>
<path d="M638.016 273.436C644.444 269.64 647.196 264.883 648.355 261.85C650.55 262.919 656.377 265.128 655.979 265.864C652.852 271.653 649.751 278.805 636.063 292.808C635.574 293.31 632.994 290.735 632.898 290.012C632.631 288.015 637.894 274.065 638.016 273.436Z" fill="#00A59B"/>
<path d="M586.938 144.315C586.938 144.315 594.967 149.843 597.828 159.787C600.613 169.472 595.706 195.45 600.241 208.946C606.282 213.614 613.665 221.918 618.749 228.457C624.51 235.865 640.908 254.497 640.908 254.497L633.069 261.56L581.266 221.503L563.785 164.98L557.891 151.613L586.938 144.315Z" fill="#0093C1"/>
<path d="M538.622 115.983C539.765 114.45 544.638 96.0778 544.638 96.0778L532.805 94.0046C532.805 94.0046 530.243 103.85 529.729 104.921C529.729 104.921 510.796 104.79 501.532 104.053C500.795 103.62 498.128 102.485 497.624 101.759C497.617 101.75 497.612 101.741 497.606 101.733C496.843 100.646 495.041 98.6731 494.501 98.3249C493.873 97.921 492.55 97.1311 491.749 96.6669C490.948 96.2027 490.025 95.6225 489.572 95.4284C489.296 95.3101 488.824 94.8303 488.497 94.471C488.01 93.9377 487.118 94.2836 487.123 95.0066C487.127 95.6872 487.763 96.4259 488.161 96.8834C489.285 98.1732 491.687 99.4497 491.484 99.6126C491.282 99.7755 486.725 99.0904 486.2 99.0457C485.675 99.0011 480.372 98.2335 479.295 98.4276C478.219 98.6217 478.159 99.3247 478.677 99.6862C479.122 99.9964 486.366 101.601 486.366 101.601C486.366 101.601 487.289 101.808 486.882 102.11C486.475 102.411 479.894 100.967 478.873 100.936C477.852 100.905 477.153 101.367 477.732 102.141C478.435 103.083 485.552 104.19 485.552 104.19C485.552 104.19 486.442 104.343 486.244 104.683C486.046 105.022 480.468 103.699 479.907 103.828C479.347 103.957 478.944 104.618 479.616 105.216C480.408 105.919 486.769 106.852 486.769 106.852C486.769 106.852 487.232 107.059 486.998 107.236C486.765 107.41 481.929 106.624 481.351 106.954C480.864 107.231 481.104 107.675 481.104 107.675C481.408 108.729 486.217 108.84 488.388 109.568C489.016 109.777 493.735 110.349 500.181 111.054C500.179 111.043 500.179 111.031 500.177 111.02C507.437 112.328 527.113 116.142 527.113 116.142C527.113 116.142 537.478 117.516 538.622 115.983Z" fill="#E2A290"/>
<path d="M546.398 67.4424L543.184 100.476C539.536 99.452 534.16 97.9524 530.517 96.9013C533.644 70.2006 546.398 67.4424 546.398 67.4424Z" fill="#00A59B"/>
<path d="M621.163 76.7659C619.646 75.6055 600.228 69.8391 600.228 69.8391L597.323 81.8561C597.323 81.8561 608.998 85.0651 610.061 85.5895C610.061 85.5895 609.766 104.582 608.949 113.87C608.511 114.604 607.354 117.271 606.629 117.771C606.62 117.778 606.611 117.782 606.603 117.789C605.513 118.545 603.531 120.335 603.179 120.873C602.77 121.5 601.972 122.819 601.502 123.62C601.033 124.421 600.448 125.34 600.248 125.793C600.128 126.07 599.645 126.539 599.285 126.862C598.749 127.347 599.084 128.244 599.805 128.246C600.484 128.248 601.226 127.617 601.685 127.219C602.979 126.104 604.274 123.705 604.434 123.91C604.594 124.115 603.871 128.681 603.822 129.208C603.773 129.734 602.961 135.045 603.146 136.13C603.328 137.212 604.029 137.277 604.394 136.762C604.707 136.317 606.369 129.063 606.369 129.063C606.369 129.063 606.583 128.139 606.881 128.549C607.179 128.96 605.682 135.55 605.642 136.574C605.602 137.598 606.055 138.301 606.832 137.73C607.777 137.034 608.94 129.902 608.94 129.902C608.94 129.902 609.103 129.011 609.436 129.212C609.772 129.413 608.404 134.999 608.529 135.563C608.653 136.128 609.307 136.536 609.908 135.867C610.615 135.079 611.601 128.703 611.601 128.703C611.601 128.703 611.812 128.241 611.985 128.476C612.157 128.71 611.331 133.555 611.656 134.139C611.928 134.63 612.37 134.392 612.37 134.392C613.425 134.095 613.576 129.272 614.319 127.099C614.532 126.472 615.144 121.741 615.905 115.28C615.894 115.283 615.882 115.283 615.869 115.285C617.235 108.012 621.21 88.3053 621.21 88.3053C621.21 88.3053 622.68 77.9263 621.163 76.7659Z" fill="#E2A290"/>
<path d="M532 218.548C532 218.548 526.126 241.375 525.505 245.352C524.887 249.311 511.421 257.77 513.89 254.166C514.457 253.339 516.121 250.529 516.208 250.246C516.663 248.735 520.572 221.86 520.572 221.86L532 218.548Z" fill="#E2A290"/>
<path d="M505.015 260.468L516.043 250.567C516.043 250.567 520.622 250.129 525.529 245.392C525.529 245.392 528.499 246.825 530.707 249.768C531.088 250.277 533.692 253.711 533.292 254.207C531.824 256.025 525.972 259.112 519.577 262.483C519.577 262.483 510.867 266.07 504.768 267.612C498.673 269.156 505.015 260.468 505.015 260.468Z" fill="#00A59B"/>
<path d="M523.129 167.434C529.787 162.485 571.461 150.383 571.461 150.383L580.674 147.428L595.85 142.465C601.66 154.955 601.16 171.411 588.132 176.334C567.898 183.977 539.046 187.728 539.046 187.728L530.045 238.347C530.045 238.347 518.434 237.581 515.498 236.267C515.164 236.117 514.848 173.591 523.129 167.434Z" fill="#27BDE0"/>
<path d="M602.129 67.6499L598.739 85.0472C598.739 85.0472 584.19 82.1997 577.956 82.2488C570.146 82.309 559.316 65.2108 562.519 63.3407C569.684 59.1565 602.129 67.6499 602.129 67.6499Z" fill="#0ED8BF"/>
<path d="M540.573 86.1072C540.789 88.5798 549.312 157.207 549.312 157.207C563.659 157.531 561.454 150.57 583.691 148.5C597.463 147.216 597.323 143.985 597.323 143.985C597.323 143.985 585.19 101.277 584.91 94.7836C584.725 90.4878 579.291 62.9324 576.455 62.7941C572.816 62.6156 568.663 62.4951 564.299 63.0574C560.574 63.5372 546.396 66.6502 544.069 68.0985C544.069 68.0963 539.668 75.7059 540.573 86.1072Z" fill="#0ED8BF"/>
<path d="M557.179 50.6432L562.562 63.6666C562.562 63.6666 558.518 82.8067 553.349 82.4966C549.011 82.2355 548.035 66.8466 548.035 66.8466C548.035 66.8466 548.38 58.3778 546.787 54.5551C545.19 50.7325 557.179 50.6432 557.179 50.6432Z" fill="#E2A290"/>
<path d="M546.883 56.2489C545.288 52.4285 557.277 52.3392 557.277 52.3392L557.733 53.4617C557.582 54.3209 557.333 55.0841 556.959 55.7111C555.035 58.9424 551.432 61.4619 548.024 62.3924C547.864 60.1631 547.537 57.8155 546.883 56.2489Z" fill="#D7735A"/>
<path d="M554.759 29.2179C555.088 29.0081 561.841 46.4456 558.213 52.5377C554.583 58.6299 545.628 62.457 541.362 59.3395C536.644 55.8918 532.287 36.4638 538.541 29.6017C544.796 22.7396 554.759 29.2179 554.759 29.2179Z" fill="#E2A290"/>
<path d="M551.373 22.6839C554.058 22.3648 557.937 22.916 562.979 27.8968C569.178 34.0225 567.712 42.7725 563.375 47.9207C559.038 53.0689 560.17 57.8779 560.17 57.8779L558.791 55.4277C557.763 53.8031 557.074 51.9866 556.845 50.0831C556.707 48.9405 556.671 47.6797 556.918 46.575C557.57 43.6673 553.186 42.8706 551.562 40.9627C550.312 39.4943 549.373 35.6783 547.371 33.2325L545.261 31.5031C545.261 31.5031 540.879 29.5906 537.415 31.2397C533.952 32.8889 534.419 14.7105 551.373 22.6839Z" fill="#004F74"/>
<path d="M552.559 44.1136C553.037 46.3229 554.499 47.8783 555.824 47.5882C557.15 47.2981 557.837 45.2718 557.359 43.0626C556.881 40.8533 555.42 39.2979 554.094 39.588C552.768 39.8781 552.081 41.9044 552.559 44.1136Z" fill="#E2A290"/>
<path d="M539.445 51.5849L547.552 50.5249C547.552 50.5249 547.766 53.6379 544.214 54.207C539.883 54.9032 539.445 51.5849 539.445 51.5849Z" fill="white"/>
<path d="M99.7008 104.117C99.6947 104.117 99.7068 104.11 99.7008 104.117C99.7008 104.117 99.7008 104.16 99.8286 104.247C100.62 104.898 101.04 105.524 101.033 106.808C101.027 108.407 99.6642 109.567 98.1185 109.567V111.774C100.808 111.774 103.261 109.821 103.261 107.037C103.261 106.039 102.993 105.059 102.324 104.098C102.354 104.061 102.5 103.887 102.616 103.676C102.78 103.379 102.81 103.019 102.81 101.816V96.6079H95.9095V100.756H93.7065V103.038H98.155V98.9455H100.638V102.48C100.644 102.473 100.741 103.459 99.7008 104.117Z" fill="white"/>
<path d="M93.7311 96.6079H93.0861V96.6141C91.9177 96.6389 90.6884 97.0171 89.8729 97.9658C89.0088 98.9641 88.9297 99.8507 88.9297 101.314C88.9297 102.312 88.9297 111.774 88.9297 111.774H95.9463V107.669H98.1675V105.363H93.7068V109.505H91.1631V100.83C91.1631 100.83 90.9988 98.9455 93.22 98.8959L93.7251 98.8711L93.7311 96.6079Z" fill="white"/>
<path d="M560.018 102.619C560.012 102.62 560.023 102.613 560.018 102.619C560.018 102.619 560.022 102.663 560.157 102.737C561.006 103.31 561.483 103.894 561.596 105.172C561.739 106.765 560.49 108.048 558.951 108.194L559.157 110.391C561.835 110.138 564.096 107.962 563.836 105.191C563.743 104.197 563.385 103.247 562.628 102.354C562.655 102.314 562.784 102.127 562.88 101.906C563.016 101.595 563.012 101.234 562.9 100.036L562.414 94.8518L555.541 95.5025L555.928 99.6316L553.734 99.8394L553.947 102.111L558.378 101.691L557.996 97.6176L560.469 97.3835L560.798 100.902C560.804 100.895 560.993 101.867 560.018 102.619Z" fill="white"/>
<path d="M553.373 95.7069L552.731 95.7678L552.731 95.774C551.57 95.9089 550.381 96.4014 549.657 97.4226C548.89 98.4979 548.894 99.388 549.03 100.845C549.123 101.838 550.006 111.257 550.006 111.257L556.994 110.595L556.611 106.509L558.823 106.3L558.608 104.004L554.166 104.424L554.552 108.547L552.019 108.787L551.209 100.152C551.209 100.152 550.87 98.2916 553.078 98.0327L553.578 97.9603L553.373 95.7069Z" fill="white"/>
<path d="M254.264 101.562C254.258 101.562 254.27 101.557 254.264 101.562C254.264 101.562 254.261 101.603 254.374 101.693C255.066 102.355 255.413 102.968 255.318 104.163C255.2 105.653 253.848 106.637 252.408 106.528L252.253 108.584C254.76 108.774 257.183 107.128 257.377 104.535C257.447 103.605 257.266 102.673 256.71 101.73C256.741 101.698 256.889 101.547 257.011 101.358C257.185 101.093 257.239 100.76 257.323 99.6391L257.687 94.787L251.256 94.299L250.966 98.1634L248.912 98.0076L248.753 100.133L252.899 100.448L253.185 96.6355L255.499 96.811L255.252 100.104C255.258 100.098 255.28 101.024 254.264 101.562Z" fill="white"/>
<path d="M249.226 94.146L248.625 94.1004L248.624 94.1061C247.534 94.0466 246.361 94.312 245.535 95.1381C244.66 96.0069 244.524 96.8273 244.422 98.1906C244.352 99.1206 243.69 107.935 243.69 107.935L250.23 108.432L250.517 104.608L252.587 104.765L252.748 102.616L248.591 102.301L248.301 106.159L245.931 105.979L246.537 97.898C246.537 97.898 246.516 96.1304 248.59 96.2413L249.062 96.254L249.226 94.146Z" fill="white"/>
</svg>
