<svg width="85" height="20" viewBox="0 0 85 20" fill="none" xmlns="http://www.w3.org/2000/svg">
<path d="M11.572 4.22L11.278 4.29H1.45V5.578H10.004C9.024 6.502 7.652 7.482 6.434 8.112V14.496C6.434 14.748 6.322 14.818 6.028 14.832C5.706 14.846 4.614 14.846 3.522 14.804C3.732 15.154 3.984 15.742 4.04 16.12C5.426 16.134 6.378 16.106 6.98 15.896C7.582 15.714 7.792 15.322 7.792 14.524V8.77C9.514 7.79 11.376 6.334 12.608 4.976L11.572 4.22ZM18.9 11.472V10.058H19.95V11.472H18.9ZM16.926 10.058H17.99V11.472H16.912C16.926 11.122 16.926 10.786 16.926 10.464V10.058ZM18.76 5.522C18.606 5.956 18.424 6.418 18.242 6.782H16.814C17.024 6.39 17.22 5.956 17.402 5.522H18.76ZM18.9 7.762H19.95V9.092H18.9V7.762ZM16.926 7.762H17.99V9.092H16.926V7.762ZM26.236 5.032C26.166 6.46 26.068 7.034 25.914 7.202C25.83 7.314 25.718 7.342 25.536 7.328C25.34 7.328 24.892 7.328 24.402 7.272C24.556 7.566 24.668 8.014 24.696 8.35C25.256 8.378 25.816 8.378 26.11 8.336C26.474 8.294 26.712 8.196 26.908 7.944C27.202 7.608 27.328 6.67 27.426 4.402C27.44 4.262 27.44 3.954 27.44 3.954H21.35V5.032H23.086C22.862 6.222 22.358 7.202 21.028 7.79V6.782H19.362C19.67 6.194 19.978 5.522 20.202 4.934L19.446 4.458L19.264 4.514H17.794C17.906 4.178 18.004 3.842 18.102 3.506L16.912 3.24C16.506 4.934 15.764 6.558 14.798 7.608C15.064 7.776 15.54 8.182 15.75 8.378L15.876 8.224V10.45C15.876 12.018 15.778 14.076 14.84 15.546C15.092 15.658 15.568 15.952 15.764 16.12C16.422 15.112 16.716 13.768 16.842 12.466H19.95V14.748C19.95 14.93 19.88 14.986 19.698 15C19.53 15 18.942 15 18.27 14.986C18.438 15.266 18.62 15.784 18.676 16.078C19.586 16.078 20.146 16.064 20.538 15.882C20.916 15.686 21.028 15.322 21.028 14.762V7.916C21.266 8.14 21.518 8.49 21.644 8.728C23.366 7.958 24.01 6.67 24.29 5.032H26.236ZM27.818 12.438H25.27V10.926H27.552V9.806H25.27V8.462H24.038V9.806H23.058C23.156 9.47 23.24 9.134 23.31 8.798L22.232 8.574C22.008 9.736 21.602 10.87 21.028 11.654C21.294 11.766 21.784 12.004 22.008 12.172C22.246 11.822 22.47 11.402 22.666 10.926H24.038V12.438H21.266V13.572H24.038V16.036H25.27V13.572H27.818V12.438ZM32.066 10.59V9.4H35.076V9.904C35.076 10.142 35.076 10.366 35.048 10.59H32.066ZM32.066 7.202H35.076V8.392H32.066V7.202ZM39.542 7.202V8.392H36.434V7.202H39.542ZM39.542 10.59H36.406C36.434 10.366 36.434 10.156 36.434 9.918V9.4H39.542V10.59ZM40.83 11.654V6.138H36.434V5.13H41.712V3.954H29.602V5.13H35.076V6.138H30.834V11.654H34.866C34.698 12.228 34.404 12.76 33.872 13.236C33.256 12.83 32.738 12.326 32.304 11.696L31.17 12.144C31.632 12.872 32.164 13.474 32.794 13.95C31.954 14.356 30.848 14.706 29.322 14.972C29.616 15.266 29.966 15.826 30.12 16.12C31.828 15.756 33.102 15.28 34.012 14.706C35.972 15.672 38.52 15.91 41.656 16.022C41.726 15.588 41.964 15.042 42.202 14.734C39.234 14.706 36.882 14.552 35.09 13.852C35.734 13.194 36.084 12.452 36.252 11.654H40.83ZM52.176 5.452C51.602 6.166 50.846 6.81 49.992 7.356C49.474 6.922 48.578 6.362 47.752 5.942C48.004 5.788 48.256 5.62 48.48 5.452H52.176ZM53.24 4.304L53.03 4.36H49.81C50.09 4.094 50.356 3.814 50.608 3.534L49.166 3.212C48.228 4.374 46.436 5.634 43.972 6.46C44.252 6.67 44.658 7.118 44.84 7.426C45.498 7.16 46.1 6.88 46.66 6.586C47.43 6.992 48.298 7.538 48.858 8.014C47.318 8.798 45.568 9.358 43.86 9.652C44.084 9.918 44.35 10.436 44.462 10.772C48.27 9.96 52.302 8.084 54.08 4.808L53.24 4.304ZM54.206 10.408C53.646 11.332 52.862 12.088 51.938 12.704C51.364 12.172 50.384 11.528 49.53 11.052C49.88 10.842 50.202 10.632 50.524 10.408H54.206ZM55.172 9.232L54.948 9.288H51.91C52.26 8.966 52.568 8.644 52.862 8.308L51.42 7.972C50.342 9.302 48.284 10.688 45.386 11.584C45.652 11.808 46.03 12.298 46.17 12.592C46.954 12.312 47.682 12.004 48.354 11.682C49.194 12.144 50.16 12.83 50.762 13.376C49.068 14.216 47.052 14.692 44.938 14.93C45.162 15.224 45.414 15.77 45.498 16.12C50.132 15.462 54.318 13.768 56.04 9.694L55.172 9.232Z" fill="#00A59B"/>
<path d="M78.4768 9.16667L74.0068 4.69667L75.1852 3.51834L81.6668 10L75.1852 16.4817L74.0068 15.3033L78.4768 10.8333H68.3335V9.16667H78.4768Z" fill="#00A59B"/>
</svg>
