<svg width="45" height="45" viewBox="0 0 45 45" fill="none" xmlns="http://www.w3.org/2000/svg">
<rect width="45" height="45" rx="22.5" fill="#00A59B"/>
<path d="M16.8 14.5C20.1155 14.5 22.8638 16.7702 23.3673 19.74C24.4836 18.6991 26.0245 18.0556 27.725 18.0556H32V20.2778C32 23.4689 29.2355 26.0556 25.825 26.0556H23.45V30.5H21.55V23.3889H19.65C15.9773 23.3889 13 20.6031 13 17.1667V14.5H16.8ZM30.1 19.8333H27.725C25.3643 19.8333 23.45 21.6244 23.45 23.8333V24.2778H25.825C28.1858 24.2778 30.1 22.4867 30.1 20.2778V19.8333ZM16.8 16.2778H14.9V17.1667C14.9 19.6209 17.0271 21.6111 19.65 21.6111H21.55V20.7222C21.55 18.268 19.4229 16.2778 16.8 16.2778Z" fill="white"/>
</svg>
